<svg xmlns="http://www.w3.org/2000/svg" width="512" height="512" viewBox="0 0 512 512" version="1.1"><path d="M 345 256 C 345 388, 345.372 496, 345.828 496 C 347.505 496, 359.824 490.647, 371.085 485.024 C 437.135 452.045, 486.331 390.839, 504.476 319.068 C 510.527 295.137, 511.472 286.616, 511.472 256 C 511.472 230.666, 511.219 226.111, 509.194 215 C 498.850 158.239, 475.960 113.782, 437.076 74.937 C 418.504 56.383, 400.402 42.702, 378.975 31.024 C 369.600 25.915, 347.812 16, 345.960 16 C 345.349 16, 345 103.418, 345 256" stroke="none" fill="#d90e33" fill-rule="evenodd"/><path d="M 162.500 17.179 C 160.850 17.740, 151.850 21.952, 142.500 26.538 C 115.332 39.864, 96.876 53.094, 74.937 74.974 C 36.065 113.740, 12.458 159.717, 2.782 215.500 C 0.803 226.912, 0.529 231.919, 0.540 256.500 C 0.551 282.678, 0.730 285.465, 3.281 299.324 C 6.284 315.630, 9.501 328.030, 14.093 341 C 36.271 403.636, 82.142 455.690, 141.075 485.097 C 150.473 489.787, 164.727 496, 166.089 496 C 166.635 496, 167 399.776, 167 256 C 167 124, 166.662 16.036, 166.250 16.079 C 165.838 16.122, 164.150 16.617, 162.500 17.179" stroke="none" fill="#0454b4" fill-rule="evenodd"/><path d="M 223.532 1.575 C 209.235 3.475, 193.358 7.047, 178.750 11.650 L 167 15.351 167 256 L 167 496.649 178.750 500.350 C 204.689 508.522, 227.750 512, 256 512 C 284.250 512, 307.311 508.522, 333.250 500.350 L 345 496.649 345 256.001 L 345 15.353 335.250 12.199 C 323.069 8.259, 307.513 4.515, 294.500 2.393 C 280.395 0.092, 238.330 -0.393, 223.532 1.575" stroke="none" fill="#f3f3f3" fill-rule="evenodd"/></svg>