<svg xmlns="http://www.w3.org/2000/svg" width="512" height="512" viewBox="0 0 512 512" version="1.1"><path d="M 345 256 C 345 388, 345.138 496, 345.306 496 C 346.730 496, 365.365 487.800, 373.871 483.430 C 387.652 476.350, 410.484 461.670, 415 456.986 C 415.275 456.701, 417.075 455.185, 419 453.618 C 460.465 419.855, 490.981 371.443, 504.487 318 C 510.295 295.014, 511.371 285.432, 511.393 256.500 C 511.411 233.043, 511.122 227.807, 509.186 216.597 C 500.933 168.809, 483.137 129.170, 453.732 93.078 C 441.410 77.955, 416.661 55.165, 401.687 45.154 C 386.142 34.762, 370.798 26.416, 355.634 20.106 C 350.207 17.848, 345.595 16, 345.384 16 C 345.173 16, 345 124, 345 256" stroke="none" fill="#d80027" fill-rule="evenodd"/><path d="M 162.500 17.179 C 155.568 19.537, 124.850 35.313, 117 40.546 C 85.635 61.455, 62.154 84.698, 42.288 114.500 C 24.567 141.083, 11.189 173.237, 5.051 204 C 0.979 224.409, 0.499 230.123, 0.562 257.500 C 0.619 282.144, 0.854 285.776, 3.259 299.116 C 18.178 381.870, 68.745 449.362, 143.500 486.295 C 151.290 490.143, 164.921 496, 166.089 496 C 166.635 496, 167 399.776, 167 256 C 167 124, 166.662 16.036, 166.250 16.079 C 165.838 16.122, 164.150 16.617, 162.500 17.179" stroke="none" fill="#6ca444" fill-rule="evenodd"/><path d="M 223.532 1.575 C 209.235 3.475, 193.358 7.047, 178.750 11.650 L 167 15.351 167 256 L 167 496.649 178.750 500.350 C 204.689 508.522, 227.750 512, 256 512 C 284.250 512, 307.311 508.522, 333.250 500.350 L 345 496.649 345 256.001 L 345 15.353 335.250 12.199 C 323.069 8.259, 307.513 4.515, 294.500 2.393 C 280.395 0.092, 238.330 -0.393, 223.532 1.575" stroke="none" fill="#f3f3f3" fill-rule="evenodd"/></svg>