<svg xmlns="http://www.w3.org/2000/svg" width="1200" height="1200" viewBox="0 0 1200 1200" version="1.1"><path d="M 810.242 645.168 C 810.109 679.636, 809.741 708.661, 809.424 709.668 C 808.907 711.315, 808.958 711.331, 809.932 709.825 C 810.687 708.657, 810.935 689.147, 810.750 645.325 L 810.485 582.500 810.242 645.168 M 617.441 682.500 C 617.442 698.450, 617.580 704.835, 617.748 696.689 C 617.916 688.543, 617.916 675.493, 617.747 667.689 C 617.579 659.885, 617.441 666.550, 617.441 682.500 M 698.430 766 C 698.430 778.925, 698.573 784.212, 698.747 777.750 C 698.921 771.288, 698.921 760.712, 698.747 754.250 C 698.573 747.788, 698.430 753.075, 698.430 766 M 698.417 827.500 C 698.418 837.950, 698.566 842.089, 698.746 836.698 C 698.926 831.307, 698.925 822.757, 698.744 817.698 C 698.563 812.639, 698.416 817.050, 698.417 827.500 M 615.310 829.748 C 622.905 829.918, 635.055 829.918, 642.310 829.747 C 649.564 829.576, 643.350 829.437, 628.500 829.438 C 613.650 829.438, 607.714 829.578, 615.310 829.748" stroke="none" fill="#181818" fill-rule="evenodd"/><path d="M 512.571 409.212 C 511.957 413.001, 511.092 418.959, 510.425 424 C 510.170 425.925, 509.762 428.175, 509.519 429 C 509.275 429.825, 508.797 432.637, 508.456 435.250 C 507.990 438.820, 508.166 440.032, 509.168 440.129 C 509.901 440.200, 511.625 440.434, 513 440.648 C 520.872 441.877, 528.711 441.699, 531.890 440.218 C 535.050 438.747, 539.038 433.587, 539.756 430.041 C 540.539 426.181, 540.641 421.369, 539.969 420.001 C 539.565 419.175, 538.621 417.199, 537.872 415.608 C 536.331 412.335, 530.510 408.288, 526.309 407.568 C 524.764 407.303, 521.161 406.825, 518.302 406.505 L 513.105 405.924 512.571 409.212 M 447.765 408.599 C 446.260 409.422, 443.785 411.726, 442.265 413.720 C 437.046 420.562, 439.168 434.205, 446.257 439.386 C 449.454 441.722, 457.417 442.422, 462.296 440.796 C 473.916 436.923, 476.835 420.048, 467.458 410.959 C 464.254 407.854, 463.377 407.543, 457.227 407.333 C 452.759 407.181, 449.581 407.606, 447.765 408.599 M 517.923 411.738 C 517.832 412.648, 517.361 415.250, 516.429 420 C 516.051 421.925, 515.606 424.625, 515.439 426 C 515.273 427.375, 514.857 430.386, 514.516 432.692 C 513.983 436.288, 514.151 436.888, 515.697 436.911 C 516.689 436.926, 519.653 436.969, 522.285 437.005 C 526.494 437.064, 532.834 434.731, 533.077 433.034 C 533.119 432.740, 533.384 431.600, 533.666 430.500 C 535.756 422.355, 534.259 416.729, 529.234 413.841 C 526.163 412.075, 518.041 410.566, 517.923 411.738 M 449.199 414.029 C 446.293 416.737, 444.192 421.038, 444.574 423.500 C 445.696 430.738, 446.323 432.172, 449.458 434.674 C 453.671 438.036, 457.738 438.117, 462.424 434.932 C 467.572 431.434, 469.005 425.753, 466.355 419.342 C 463.479 412.382, 454.089 409.474, 449.199 414.029 M 560 417.833 C 560 418.960, 559.538 420.167, 558.973 420.516 C 558.409 420.865, 558.042 421.679, 558.157 422.325 C 558.273 422.971, 557.610 425.242, 556.684 427.372 C 555.758 429.502, 555 431.672, 555 432.196 C 555 432.719, 553.854 436.562, 552.453 440.735 C 550.430 446.760, 550.173 448.493, 551.203 449.146 C 554.050 450.953, 555.744 449.862, 556.355 445.828 C 556.466 445.098, 556.835 444.050, 557.177 443.500 C 557.831 442.446, 559.936 435.038, 559.951 433.740 C 559.956 433.321, 560.655 431.634, 561.505 429.990 C 562.356 428.345, 562.803 427, 562.500 427 C 562.197 427, 562.647 425.650, 563.500 424 C 564.353 422.350, 564.760 421, 564.403 421 C 564.047 421, 564.324 420.314, 565.020 419.476 C 566.533 417.653, 566.317 417.369, 562.748 416.473 C 560.420 415.889, 560 416.097, 560 417.833 M 408.511 418.675 C 404.412 420.099, 396.710 426.722, 397.558 428.093 C 397.819 428.516, 397.560 429.154, 396.982 429.511 C 395.814 430.233, 396.062 438.998, 397.250 438.999 C 397.662 439, 397.947 439.337, 397.882 439.750 C 397.300 443.434, 404.029 451.891, 407.710 452.103 C 408.695 452.160, 411.147 452.346, 413.160 452.516 C 419.297 453.036, 424.892 450.517, 429.054 445.360 C 430.460 443.618, 430.459 443.008, 429.044 438.967 C 428.184 436.510, 427.120 433.938, 426.681 433.250 C 425.727 431.758, 421.376 431.582, 420.500 433 C 420.160 433.550, 419.009 434, 417.941 434 C 416.653 434, 416 434.687, 416 436.043 C 416 437.782, 416.545 438.043, 419.657 437.793 C 422.958 437.528, 423.392 437.787, 424.125 440.455 C 424.767 442.792, 424.525 443.794, 422.968 445.244 C 421.886 446.253, 421 446.780, 421 446.417 C 421 446.053, 420.408 446.247, 419.684 446.848 C 418.959 447.449, 417.018 448.043, 415.370 448.169 C 412.171 448.412, 406 446.292, 406 444.950 C 406 444.506, 405.296 443.439, 404.435 442.578 C 403.574 441.717, 402.661 439.772, 402.406 438.256 C 402.151 436.740, 401.749 434.949, 401.512 434.275 C 400.673 431.886, 403.967 426.217, 407.354 424.219 C 409.779 422.788, 412.152 422.282, 415.464 422.491 C 418.849 422.704, 420.300 422.381, 420.705 421.325 C 422.120 417.640, 415.581 416.218, 408.511 418.675 M 585.622 430.517 C 578.361 433.263, 574.247 439.576, 574.228 448 C 574.219 452.178, 574.713 454.041, 576.282 455.750 C 577.419 456.988, 577.957 458, 577.477 458 C 575.729 458, 584.600 463.764, 588 464.837 C 594.110 466.765, 596.703 465.470, 599.821 458.934 C 601.020 456.423, 602 453.888, 602 453.301 C 602 452.300, 598.409 450.653, 596.750 450.892 C 596.337 450.951, 596 450.550, 596 450 C 596 448.551, 592.250 448.770, 591.714 450.250 C 591.465 450.938, 592.391 452.431, 593.772 453.569 C 596.236 455.599, 596.250 455.688, 594.515 458.336 C 592.769 461.001, 590.146 461.481, 587.250 459.666 C 586.563 459.235, 586 459.168, 586 459.518 C 586 460.468, 580.663 454.731, 579.438 452.465 C 577.627 449.113, 579.658 442.512, 583.804 438.276 C 585.837 436.199, 588.400 434.395, 589.500 434.268 C 592.926 433.869, 599.827 437.005, 602.491 440.171 C 605.130 443.308, 608 443.443, 608 440.431 C 608 438.683, 602.866 433.292, 599.273 431.269 C 595.715 429.265, 589.797 428.939, 585.622 430.517 M 350.557 448.908 C 350.248 449.407, 351.891 452.219, 354.206 455.158 C 356.522 458.096, 358.766 460.950, 359.193 461.500 C 359.620 462.050, 361.102 463.915, 362.485 465.644 C 363.868 467.374, 365 469.009, 365 469.278 C 365 469.547, 361.311 468.695, 356.801 467.384 C 352.292 466.073, 347.657 465, 346.501 465 C 345.346 465, 343.965 464.565, 343.433 464.033 C 341.747 462.347, 333.227 461.966, 332.619 463.550 C 332.130 464.824, 334.771 468.676, 339.250 473.223 C 340.212 474.201, 341.001 475.337, 341.001 475.750 C 341.002 476.163, 342.165 477.850, 343.585 479.500 C 346.122 482.447, 348.573 485.537, 351.515 489.500 C 352.966 491.455, 353.033 491.457, 354.461 489.612 C 356.180 487.391, 355.627 486.131, 350.552 480.694 C 348.599 478.601, 346.993 476.576, 346.984 476.194 C 346.975 475.812, 345.625 473.977, 343.984 472.114 C 340.499 468.161, 340.433 467.970, 342.750 468.562 C 343.712 468.808, 348.325 469.975, 353 471.155 C 357.675 472.336, 362.175 473.530, 363 473.810 C 363.825 474.089, 364.856 474.240, 365.291 474.145 C 365.725 474.051, 367.005 474.467, 368.134 475.072 C 370.201 476.178, 375.001 475.590, 374.999 474.231 C 374.998 473.829, 373.835 472.150, 372.415 470.500 C 370.994 468.850, 368.857 466.209, 367.666 464.630 C 361.242 456.119, 356.567 450.361, 355.179 449.250 C 353.342 447.780, 351.346 447.632, 350.557 448.908 M 624.198 450.843 C 623.028 452.304, 619.379 457.325, 616.087 462 C 612.796 466.675, 609.405 471.379, 608.552 472.453 C 607.698 473.528, 607 474.935, 607 475.581 C 607 476.801, 609.817 479.581, 610.355 478.893 C 611.623 477.271, 617.790 468.802, 619 467.021 C 619.825 465.807, 621.274 463.902, 622.220 462.788 C 623.166 461.674, 624.209 459.916, 624.538 458.881 C 624.866 457.847, 625.554 457, 626.067 457 C 626.580 457, 627 456.311, 627 455.469 C 627 454.626, 627.675 453.678, 628.500 453.362 C 630.542 452.578, 630.387 450.723, 628.162 449.333 C 626.628 448.375, 625.974 448.624, 624.198 450.843 M 642.019 462.964 C 640.680 465.466, 641.756 467.260, 646.231 469.990 L 648.962 471.655 641.918 479.078 C 627.662 494.100, 628.142 493.474, 629.490 495.317 C 631.073 497.482, 632.685 497.457, 633.867 495.249 C 634.382 494.286, 638.223 490.046, 642.402 485.826 C 646.581 481.606, 650 477.669, 650 477.077 C 650 474.969, 653.169 476.047, 655.653 479 C 658.365 482.223, 659.915 482.685, 661.774 480.826 C 662.673 479.927, 662.075 478.848, 659.224 476.223 C 657.176 474.337, 652.727 470.096, 649.339 466.797 C 643.383 461.001, 643.138 460.873, 642.019 462.964 M 313.365 482.731 C 311.251 485.310, 308.294 488.677, 306.793 490.212 C 305.164 491.878, 304.303 493.625, 304.656 494.545 C 304.981 495.393, 305.437 495.897, 305.668 495.665 C 305.900 495.433, 307.375 496.426, 308.945 497.872 C 310.515 499.317, 314.207 502.659, 317.150 505.297 C 320.092 507.935, 323.974 511.535, 325.776 513.297 L 329.053 516.500 333.276 511.933 C 338.647 506.126, 343 500.929, 343 500.326 C 343 500.068, 342.420 499.277, 341.712 498.569 C 340.661 497.518, 339.419 498.433, 334.968 503.536 L 329.513 509.792 325.841 506.646 C 323.822 504.916, 322.131 503.048, 322.085 502.495 C 322.038 501.942, 323.866 499.509, 326.146 497.088 C 330.029 492.965, 330.176 492.602, 328.469 491.354 C 326.918 490.220, 326.395 490.280, 324.953 491.761 C 324.021 492.717, 323.400 493.663, 323.574 493.861 C 323.916 494.253, 318.519 499, 317.731 499 C 317.467 499, 315.664 497.538, 313.725 495.750 C 311.012 493.250, 310.463 492.214, 311.349 491.260 C 312.818 489.678, 315.885 486.238, 318.859 482.835 C 321.153 480.211, 321.158 480.155, 319.198 479.106 C 317.479 478.186, 316.684 478.680, 313.365 482.731 M 671.500 498.617 C 668.750 499.430, 665.825 500.361, 665 500.686 C 664.175 501.012, 662.825 501.374, 662 501.492 C 659.873 501.796, 652.326 503.845, 646.785 505.624 C 642.460 507.012, 642.170 507.303, 643.285 509.126 C 644.170 510.573, 645.179 510.959, 647 510.546 C 648.375 510.234, 650.604 509.733, 651.953 509.433 C 653.643 509.057, 654.888 509.486, 655.953 510.809 C 663.574 520.279, 663.387 519.902, 661.900 522.789 C 661.132 524.280, 660.104 525.789, 659.616 526.143 C 658.372 527.044, 659.774 532.002, 661.269 531.989 C 662.363 531.980, 671.367 517.636, 671.462 515.750 C 671.483 515.337, 672.669 513.534, 674.099 511.743 C 678.927 505.692, 680.355 502.031, 678.927 499.364 C 678.231 498.064, 677.401 497.031, 677.081 497.070 C 676.761 497.108, 674.250 497.804, 671.500 498.617 M 669.685 504.157 C 668.875 504.609, 667.378 505.139, 666.357 505.334 C 665.336 505.529, 663.275 506.030, 661.777 506.446 C 659.193 507.165, 659.124 507.339, 660.425 509.854 C 661.178 511.312, 662.660 513.287, 663.716 514.243 C 665.560 515.912, 665.734 515.852, 668.058 512.741 C 672.208 507.186, 674.023 503.333, 672.490 503.333 C 671.756 503.333, 670.494 503.704, 669.685 504.157 M 290.615 511.465 C 289.727 512.820, 289 514.311, 289 514.776 C 289 515.242, 288.209 516.495, 287.242 517.561 C 284.415 520.679, 282 524.804, 282 526.517 C 282 527.390, 283.350 528.575, 285 529.150 C 286.650 529.725, 288 530.602, 288 531.098 C 288 531.594, 288.399 532, 288.886 532 C 289.373 532, 292.468 533.800, 295.762 536 C 299.057 538.200, 302.226 540, 302.805 540 C 303.384 540, 304.510 540.653, 305.308 541.451 C 306.106 542.248, 307.825 543.162, 309.129 543.480 C 311.625 544.090, 312.301 543.263, 317.288 533.500 C 318.411 531.300, 319.951 528.768, 320.709 527.874 C 321.887 526.482, 321.863 526.162, 320.543 525.655 C 318.722 524.956, 316 525.831, 316 527.116 C 316 527.612, 314.678 529.843, 313.062 532.073 C 311.446 534.304, 309.970 536.589, 309.783 537.151 C 309.596 537.713, 307.539 536.926, 305.212 535.403 C 300.455 532.288, 300.390 530.958, 304.717 525.184 C 307.100 522.005, 307.126 521.813, 305.362 520.523 C 303.431 519.111, 301.557 519.474, 302.543 521.069 C 302.859 521.581, 302.651 522, 302.079 522 C 301.508 522, 300.128 523.789, 299.013 525.975 C 297.083 529.757, 296.852 529.894, 294.242 528.794 C 292.734 528.157, 290.652 526.858, 289.615 525.905 C 287.780 524.220, 287.839 524.007, 291.830 517.898 C 294.924 513.164, 295.664 511.300, 294.843 510.311 C 293.290 508.439, 292.447 508.669, 290.615 511.465 M 694.250 528.360 C 693.013 528.973, 692 529.818, 692 530.237 C 692 530.657, 691.319 531, 690.486 531 C 688.845 531, 685.530 532.673, 682.750 534.905 C 681.788 535.678, 681 535.945, 681 535.500 C 681 535.055, 680.212 535.403, 679.250 536.274 C 678.288 537.145, 677.050 537.961, 676.500 538.088 C 673.005 538.893, 672 539.321, 672 540.008 C 672 540.434, 670.849 541.072, 669.443 541.425 C 667.358 541.948, 667.011 542.476, 667.561 544.283 C 667.933 545.502, 668.928 547.288, 669.773 548.250 C 670.618 549.212, 670.985 550, 670.587 550 C 670.189 550, 670.735 551.237, 671.801 552.750 C 672.866 554.263, 674.052 556.513, 674.436 557.750 C 675.163 560.091, 676.587 560.549, 678.793 559.149 C 679.790 558.516, 679.302 556.851, 676.659 551.869 L 673.232 545.408 681.866 540.958 C 686.615 538.511, 690.651 536.166, 690.835 535.748 C 691.020 535.330, 691.501 535.191, 691.904 535.440 C 692.307 535.690, 694.242 534.905, 696.205 533.697 C 699.242 531.827, 699.646 531.166, 698.919 529.250 C 697.984 526.787, 697.581 526.710, 694.250 528.360 M 275.500 547.724 C 274.400 547.994, 272.867 548.729, 272.093 549.358 C 269.929 551.114, 263.688 565.091, 264.649 566.027 C 265.117 566.483, 270 568.496, 275.500 570.502 C 281 572.508, 287.879 575.074, 290.786 576.205 C 296.542 578.444, 296.459 578.455, 297.398 575.392 C 297.967 573.538, 297.288 573.011, 291.772 571.019 C 284.299 568.321, 284.802 568.680, 285.598 566.606 C 286.356 564.631, 290.289 562.897, 298.250 561.030 C 301.413 560.288, 304.033 559.415, 304.074 559.090 C 304.115 558.766, 304.331 557.530, 304.554 556.345 C 304.917 554.409, 304.680 554.278, 302.229 555.059 C 294.939 557.380, 286.969 558.750, 287.188 557.643 C 287.854 554.285, 285.757 550.929, 281.797 549.016 C 279.502 547.907, 277.596 547.052, 277.562 547.116 C 277.528 547.180, 276.600 547.453, 275.500 547.724 M 273.404 555.250 C 272.328 556.487, 271.347 557.837, 271.224 558.250 C 271.101 558.663, 270.966 559.112, 270.923 559.250 C 270.152 561.770, 270.540 562.931, 272.352 563.525 C 273.533 563.913, 274.725 564.307, 275 564.401 C 275.275 564.494, 276.561 565.159, 277.857 565.878 C 280.944 567.589, 282.091 566.376, 282.728 560.724 C 283.160 556.885, 282.908 556.049, 280.892 554.637 C 277.721 552.416, 275.727 552.579, 273.404 555.250 M 531.500 581.749 C 524.450 583.030, 520.332 587.295, 519.371 594.314 C 517.969 604.539, 526.622 611.275, 537.776 608.642 C 540.170 608.077, 545.906 604.022, 544.385 603.970 C 543.898 603.953, 544.270 603.490, 545.211 602.942 C 547.992 601.321, 547.226 589.934, 544.113 586.621 C 541.501 583.840, 534.619 581.182, 531.500 581.749 M 809.607 582.582 C 808.814 584.648, 808.814 707.352, 809.607 709.418 C 810.109 710.727, 812.096 711, 821.107 711 L 832 711 832 646 L 832 581 821.107 581 C 812.096 581, 810.109 581.273, 809.607 582.582 M 810.471 646 C 810.471 680.925, 810.596 695.212, 810.749 677.750 C 810.903 660.287, 810.903 631.712, 810.749 614.250 C 810.596 596.788, 810.471 611.075, 810.471 646 M 259.930 587.809 C 257.033 590.928, 254.850 597.031, 255.103 601.304 C 255.398 606.288, 258.402 612.844, 260.795 613.726 C 261.733 614.071, 262.770 614.754, 263.100 615.244 C 263.430 615.733, 264.555 616.294, 265.600 616.490 C 266.645 616.686, 267.500 616.939, 267.500 617.051 C 267.500 617.653, 273.045 617.881, 276.655 617.428 C 283.033 616.627, 289.314 609.748, 290.323 602.458 C 290.814 598.914, 289.873 591.539, 288.792 590.458 C 288.581 590.247, 286.481 589.833, 284.125 589.537 C 281.770 589.241, 278.753 588.725, 277.421 588.391 C 275.781 587.979, 274.950 588.221, 274.843 589.142 C 274.757 589.889, 274.583 591.625, 274.455 593 C 274.327 594.375, 273.885 596.327, 273.471 597.338 C 272.848 598.860, 273.130 599.118, 275.109 598.838 C 276.695 598.614, 277.608 597.742, 277.820 596.250 C 278.062 594.544, 278.799 594, 280.870 594 C 285.903 594, 287.017 596.872, 284.825 604.191 C 282.604 611.602, 274.644 614.298, 266.455 610.412 C 261.657 608.135, 260.551 606.384, 260.364 600.772 C 260.208 596.107, 262.405 590.022, 264.250 590.006 C 265.675 589.994, 264.995 587.212, 263.418 586.607 C 261.507 585.874, 261.832 585.762, 259.930 587.809 M 759.556 619.778 C 759.312 620.021, 756.649 620.367, 753.637 620.547 C 748.411 620.859, 740.787 624.372, 738.765 627.399 C 738.340 628.037, 738.024 628.079, 738.014 627.500 C 738.005 626.950, 736.933 627.737, 735.632 629.250 C 734.332 630.763, 732.989 632, 732.648 632 C 732.307 632, 731.515 629.960, 730.887 627.467 C 730.260 624.974, 729.016 622.551, 728.123 622.082 C 727.230 621.613, 723.125 621.290, 719 621.365 L 711.500 621.500 711.242 681.283 L 710.984 741.066 722.242 740.783 L 733.500 740.500 733.717 723.500 C 733.836 714.150, 733.949 706.084, 733.967 705.576 C 733.985 705.067, 735.125 705.708, 736.500 707 C 737.875 708.292, 739 708.975, 739 708.519 C 739 708.063, 739.788 708.382, 740.750 709.227 C 745.267 713.193, 756.574 713.734, 767 710.483 C 772.821 708.668, 775.687 706.884, 780.418 702.133 C 784.075 698.461, 790.731 688, 791.003 685.498 C 791.031 685.236, 791.323 684.322, 791.651 683.467 C 791.979 682.613, 791.982 681.649, 791.659 681.325 C 791.335 681.002, 791.611 679.784, 792.271 678.619 C 793.689 676.117, 794.154 653, 792.787 653 C 792.289 653, 792.162 652.547, 792.504 651.994 C 792.846 651.441, 792.591 649.303, 791.937 647.244 C 786.574 630.337, 778.348 621.967, 765.249 620.088 C 762.362 619.674, 759.799 619.534, 759.556 619.778 M 468 620.293 C 467.725 620.577, 465.787 621.079, 463.694 621.408 C 459.617 622.050, 454.459 624.399, 452.227 626.630 C 451.474 627.383, 450.445 628, 449.941 628 C 449.173 628, 443.818 635.425, 443.449 637 C 443.385 637.275, 442.813 638.753, 442.178 640.284 C 440.922 643.312, 440.955 654, 442.220 654 C 442.649 654, 443 654.697, 443 655.550 C 443 659.566, 448.298 666.345, 453.402 668.858 C 458.677 671.455, 465.007 674, 466.195 674.001 C 470.104 674.003, 482.532 680.256, 483.970 682.945 C 488.878 692.115, 474.455 700.559, 462.450 695.543 C 460.532 694.742, 458.794 694.180, 458.587 694.293 C 458.380 694.407, 457.319 693.693, 456.229 692.707 C 453.156 689.927, 447.573 689.383, 445.191 691.633 C 443.219 693.495, 438.998 700.415, 439.002 701.780 C 439.005 703.157, 447.794 708.041, 454.126 710.186 C 459.120 711.876, 462.822 712.338, 471.222 712.317 C 477.957 712.301, 482.473 711.852, 483.367 711.110 C 484.149 710.461, 485.174 710.018, 485.645 710.126 C 486.785 710.389, 490.882 708.545, 494.126 706.309 C 497.996 703.643, 503.388 696.090, 504.781 691.384 C 506.253 686.413, 506.386 677.357, 505 676.500 C 504.450 676.160, 504 675.010, 504 673.944 C 504 671.692, 497.390 664, 495.455 664 C 494.733 664, 493.548 663.414, 492.821 662.698 C 491.185 661.084, 483 657.760, 483 658.708 C 483 659.089, 482.460 658.860, 481.800 658.200 C 481.140 657.540, 479.655 657, 478.500 657 C 477.345 657, 475.972 656.622, 475.450 656.160 C 474.928 655.698, 472.925 654.726, 471 653.998 C 465.628 651.969, 463 649.137, 463 645.377 C 463 640.661, 468.211 636.823, 474.730 636.739 C 479.364 636.678, 489.521 639.342, 491.450 641.123 C 493.180 642.720, 498.733 642.122, 499.552 640.250 C 499.973 639.288, 500.246 638.163, 500.159 637.750 C 500.071 637.337, 500.438 637, 500.974 637 C 501.510 637, 502.685 635.577, 503.584 633.837 C 505.168 630.774, 505.146 630.616, 502.860 628.803 C 499.702 626.300, 493.922 623.274, 491.479 622.846 C 490.390 622.656, 489.266 622.190, 488.979 621.812 C 488.350 620.981, 468.711 619.559, 468 620.293 M 599.579 621.782 C 596.872 622.704, 593.139 624.889, 591.284 626.639 C 586.588 631.068, 585.539 631.273, 585.285 627.810 C 584.947 623.178, 581.544 621.072, 574.332 621.033 C 564.030 620.978, 565 616.246, 565 666.545 L 565 710.875 576.087 711.188 C 582.185 711.359, 587.360 711.312, 587.587 711.083 C 587.814 710.854, 588 696.178, 588 678.470 L 588 646.273 590.543 643.730 C 595.342 638.931, 600.920 637.224, 608.500 638.234 C 610.263 638.468, 615.861 643.413, 616.083 644.930 C 616.129 645.244, 616.402 646.625, 616.689 648 C 616.977 649.375, 617.419 664.112, 617.672 680.750 L 618.132 711 629.108 711 L 640.084 711 639.949 680.750 C 639.831 654.391, 640.033 649.953, 641.516 646.250 C 642.451 643.913, 643.533 642, 643.920 642 C 644.307 642, 645.513 641.212, 646.600 640.250 C 650.883 636.460, 659.974 636.937, 665.012 641.216 C 668.787 644.422, 669.105 647.464, 669.028 679.660 L 668.953 711 680.567 711 L 692.181 711 691.840 676.833 C 691.579 650.634, 691.208 642.569, 690.250 642.250 C 689.563 642.021, 689 640.740, 689 639.403 C 689 634.372, 682.929 627.090, 675.500 623.211 C 671.101 620.914, 669.298 620.595, 660.500 620.565 C 652.020 620.536, 649.778 620.884, 645.750 622.854 C 643.138 624.133, 641 625.588, 641 626.089 C 641 626.590, 640.406 627, 639.680 627 C 638.172 627, 634.715 630.695, 633.665 633.429 C 632.985 635.202, 632.883 635.204, 630.979 633.481 C 629.891 632.496, 629 631.137, 629 630.461 C 629 629.232, 621.655 622.068, 620.247 621.923 C 619.836 621.881, 618.600 621.636, 617.500 621.378 C 611.841 620.051, 604.156 620.224, 599.579 621.782 M 879.500 621.524 C 872.219 623.218, 866.411 626.508, 861.143 631.921 C 858.590 634.545, 856.035 637.324, 855.467 638.096 C 853.802 640.360, 851.062 646.552, 850.587 649.124 C 850.346 650.431, 850.078 651.500, 849.992 651.500 C 849.332 651.500, 848.576 658.888, 848.560 665.500 C 848.539 674.307, 849.490 681.661, 850.874 683.385 C 851.366 683.998, 852.082 685.962, 852.464 687.750 C 852.846 689.538, 853.573 691, 854.079 691 C 854.586 691, 855 691.675, 855 692.500 C 855 693.325, 855.450 694, 856 694 C 856.550 694, 857 694.602, 857 695.337 C 857 696.972, 864.220 703.803, 869 706.690 C 880.536 713.659, 899.962 714.631, 913.750 708.930 C 919.161 706.693, 920.878 705.642, 925.318 701.846 L 930.027 697.822 926.877 693.844 C 922.448 688.252, 919.475 686.463, 916.709 687.723 C 915.494 688.276, 914.100 688.752, 913.612 688.779 C 913.123 688.807, 912.448 689.227, 912.112 689.714 C 910.786 691.631, 899.584 695, 894.537 695 C 880.900 695, 873.431 688.008, 871.305 673.250 L 870.837 670 897.668 669.986 C 912.426 669.979, 925.453 669.717, 926.617 669.405 C 929.435 668.648, 931.450 662.418, 930.688 656.818 C 930.102 652.514, 929.289 648.500, 929.002 648.500 C 928.919 648.500, 928.656 647.375, 928.418 646 C 927.885 642.926, 924.826 637, 923.773 637 C 923.348 637, 923 636.333, 923 635.518 C 923 633.155, 916.847 627.463, 911.196 624.600 C 908.338 623.151, 906 622.254, 906 622.606 C 906 622.957, 905.438 622.801, 904.750 622.259 C 902.315 620.338, 886.567 619.880, 879.500 621.524 M 522.279 666.044 L 522.500 711.154 533.500 711.154 L 544.500 711.154 544.500 666.327 L 544.500 621.500 533.279 621.218 L 522.058 620.935 522.279 666.044 M 935.681 622.612 C 935.974 623.375, 936.616 624, 937.107 624 C 937.598 624, 938 624.689, 938 625.531 C 938 626.374, 938.675 627.322, 939.500 627.638 C 940.325 627.955, 941 628.800, 941 629.517 C 941 630.234, 942.800 633.098, 945 635.881 C 947.200 638.664, 949 641.336, 949 641.818 C 949 642.300, 949.892 643.775, 950.981 645.097 C 952.071 646.419, 953.334 647.950, 953.787 648.500 C 954.241 649.050, 954.725 649.950, 954.863 650.500 C 955.002 651.050, 956.218 652.737, 957.565 654.250 C 958.913 655.763, 959.674 657.007, 959.258 657.015 C 958.841 657.024, 958.974 657.361, 959.553 657.765 C 960.132 658.169, 961.611 660.155, 962.839 662.177 C 965 665.734, 965.013 665.914, 963.252 667.677 C 962.251 668.680, 960.287 671.300, 958.889 673.500 C 954.013 681.172, 940.983 700.519, 939.021 703 C 937.934 704.375, 937.034 705.915, 937.022 706.421 C 937.010 706.928, 936.255 708.165, 935.345 709.171 C 933.752 710.931, 934.082 711.004, 944.095 711.118 C 949.818 711.184, 955.130 711.148, 955.900 711.040 C 957.495 710.816, 959.998 708.549, 960.004 707.321 C 960.007 706.870, 961.770 704.176, 963.924 701.336 C 966.077 698.496, 967.575 695.908, 967.253 695.586 C 966.930 695.264, 967.109 695, 967.649 695 C 968.190 695, 969.702 693.087, 971.010 690.750 C 972.318 688.413, 973.976 685.905, 974.694 685.179 C 975.412 684.452, 976 683.407, 976 682.857 C 976 681.586, 978.555 679, 979.812 679 C 980.337 679, 981.040 679.788, 981.374 680.750 C 981.708 681.712, 983.227 684.525, 984.749 687 C 986.272 689.475, 988.863 693.703, 990.509 696.396 C 992.154 699.088, 994.850 703.363, 996.500 705.896 L 999.500 710.500 1012.250 710.815 C 1019.263 710.988, 1025 710.805, 1025 710.409 C 1025 709.470, 1019.821 702.600, 1018.785 702.165 C 1018.346 701.980, 1018.242 701.418, 1018.553 700.915 C 1018.864 700.412, 1018.641 700, 1018.059 700 C 1017.477 700, 1016.995 699.438, 1016.989 698.750 C 1016.981 697.685, 1010.449 688.194, 1007.011 684.250 C 1006.411 683.563, 1006.216 683, 1006.576 683 C 1007.488 683, 1004.254 678.052, 1001.183 674.750 C 999.777 673.237, 998.945 672, 999.336 672 C 1000.283 672, 996.926 666.808, 995.033 665.345 C 993.745 664.349, 993.916 663.811, 996.269 661.458 C 997.771 659.956, 999 658.362, 999 657.915 C 999 657.468, 1000.125 655.889, 1001.500 654.405 C 1002.875 652.922, 1004 651.305, 1004 650.812 C 1004 650.319, 1004.457 649.372, 1005.015 648.708 C 1007.576 645.659, 1013 638.059, 1013 637.518 C 1013 637.187, 1013.467 636.372, 1014.038 635.708 C 1016.010 633.412, 1024 622.030, 1024 621.516 C 1024 621.232, 1019.150 621, 1013.223 621 C 1001.734 621, 998.885 621.935, 996.915 626.351 C 996.388 627.533, 994.657 630.295, 993.068 632.489 C 991.478 634.684, 990.389 636.821, 990.648 637.239 C 990.907 637.658, 990.619 638, 990.008 638 C 989.397 638, 988.257 639.534, 987.474 641.408 C 986.691 643.283, 985.701 644.970, 985.275 645.158 C 984.849 645.346, 983.627 647.215, 982.560 649.311 L 980.620 653.122 979.164 650.344 C 978.364 648.816, 977.129 646.986, 976.420 646.277 C 975.711 645.568, 974.846 644.091, 974.498 642.994 C 974.150 641.897, 973.494 641, 973.041 641 C 972.588 641, 971.960 639.979, 971.647 638.730 C 971.334 637.482, 970.260 635.569, 969.260 634.480 C 968.261 633.391, 966.204 630.371, 964.690 627.768 C 963.176 625.166, 961.042 622.558, 959.948 621.972 C 958.818 621.368, 953.031 620.976, 946.554 621.066 C 937.279 621.194, 935.248 621.483, 935.681 622.612 M 884.481 637.500 C 879.378 639.008, 873 645.371, 873 648.952 C 873 650.014, 872.570 651.148, 872.044 651.473 C 871.518 651.798, 871.334 652.706, 871.635 653.491 C 872.077 654.642, 875.832 654.974, 891.092 655.209 C 909.406 655.491, 910.624 655.317, 910.024 652.500 C 909.906 651.950, 909.652 650.705, 909.459 649.732 C 907.467 639.701, 896.011 634.092, 884.481 637.500 M 745.284 638.850 C 744.065 639.207, 741.027 641.210, 738.534 643.300 L 734 647.100 734 668.609 C 734 680.861, 734.382 689.882, 734.887 689.570 C 735.374 689.269, 736.351 689.718, 737.057 690.569 C 740.594 694.831, 752.095 696.490, 758.140 693.611 C 763.765 690.931, 769 684.164, 769 679.573 C 769 678.223, 769.386 676.879, 769.858 676.588 C 770.887 675.952, 770.565 655.765, 769.458 651.500 C 768.167 646.524, 764.377 641.407, 760.684 639.654 C 757.218 638.009, 749.518 637.607, 745.284 638.850 M 267.500 653.535 C 266.950 653.694, 265.362 654.073, 263.971 654.376 C 261.105 655.001, 255 660.080, 255 661.839 C 255 662.478, 254.502 663, 253.893 663 C 253.284 663, 253.040 663.661, 253.349 664.468 C 253.659 665.275, 253.489 666.198, 252.972 666.517 C 251.573 667.382, 252.762 674.613, 255.035 679.069 C 258.446 685.754, 266.010 688.915, 273.500 686.784 C 275.700 686.159, 277.755 685.699, 278.066 685.762 C 278.378 685.826, 280.372 684.330, 282.498 682.439 C 284.624 680.547, 285.944 678.993, 285.432 678.985 C 284.919 678.976, 285.078 678.602, 285.785 678.154 C 287.927 676.795, 288.294 667.693, 286.386 663.288 C 284.182 658.200, 278.217 653.944, 272.739 653.550 C 270.408 653.382, 268.050 653.375, 267.500 653.535 M 267.250 659.534 C 264.913 660.224, 263 660.632, 263 660.440 C 263 660.248, 261.811 661.280, 260.357 662.734 C 258.151 664.940, 257.714 666.271, 257.714 670.787 C 257.714 675.542, 258.065 676.484, 260.607 678.563 C 264.328 681.605, 268.681 682.444, 273.591 681.064 C 279.499 679.404, 282.172 676.671, 282.712 671.739 C 283.660 663.086, 275.918 656.974, 267.250 659.534 M 281.898 699.113 L 276.296 701.068 277.824 705.784 C 278.665 708.378, 279.814 710.808, 280.378 711.184 C 282.112 712.340, 283.145 710.945, 282.824 707.882 C 282.581 705.571, 283.072 704.675, 285.179 703.582 C 287.599 702.327, 288.029 702.402, 289.920 704.415 C 291.064 705.633, 292 707.361, 292 708.255 C 292 709.150, 292.376 710.114, 292.836 710.399 C 293.296 710.683, 293.586 711.722, 293.481 712.708 C 292.725 719.786, 289.553 723.328, 282.347 725.143 C 278.099 726.213, 277.269 726.109, 273.316 724.012 C 270.922 722.742, 269.181 721.486, 269.447 721.220 C 269.712 720.954, 269.385 719.784, 268.719 718.619 C 268.053 717.453, 267.506 714.250, 267.504 711.500 C 267.501 707.173, 267.215 706.459, 265.385 706.198 C 263.749 705.965, 263.140 706.552, 262.691 708.793 C 261.229 716.103, 264.743 725.236, 270.275 728.503 C 274.091 730.757, 283.371 731.255, 287.625 729.434 C 292.442 727.372, 296.641 722.601, 297.320 718.418 C 298.049 713.922, 297.083 706, 295.805 706 C 295.297 706, 295.158 705.553, 295.496 705.007 C 296.155 703.940, 289.895 696.948, 288.399 697.079 C 287.905 697.122, 284.979 698.038, 281.898 699.113 M 676.115 742.362 C 675.295 743.349, 675.056 761.122, 675.242 807.112 L 675.500 870.500 682.988 870.799 C 693.100 871.202, 694.614 870.700, 696.006 866.483 L 697.167 862.964 700.940 865.952 C 706.372 870.254, 710.923 871.883, 719 872.413 C 725.008 872.807, 732.887 871.182, 736.154 868.874 C 737.614 867.843, 739.109 867, 739.477 867 C 740.488 867, 750 857.793, 750 856.814 C 750 856.345, 751.127 854.175, 752.504 851.993 C 753.882 849.811, 755.198 847.008, 755.430 845.763 C 755.662 844.518, 755.942 843.500, 756.053 843.500 C 756.164 843.500, 756.413 842.600, 756.607 841.500 C 756.800 840.400, 757.411 837.025, 757.964 834 C 759.123 827.663, 758.684 815.758, 757.023 808.501 C 755.200 800.529, 750.116 791.224, 745.575 787.548 C 741.227 784.028, 735 780.524, 735 781.597 C 735 781.953, 734.438 781.799, 733.750 781.253 C 732.416 780.195, 718.177 779.864, 716.500 780.853 C 715.950 781.177, 714.695 781.568, 713.711 781.721 C 710.988 782.145, 704.856 785.500, 701.500 788.401 L 698.500 790.995 698.233 765.997 L 697.966 741 687.605 741 C 680.084 741, 676.935 741.373, 676.115 742.362 M 611 781.194 C 611 781.711, 610.138 781.861, 609.084 781.527 C 608.030 781.192, 606.879 781.387, 606.525 781.959 C 606.171 782.532, 605.009 783, 603.941 783 C 602.873 783, 602 783.401, 602 783.892 C 602 784.382, 600.812 785.081, 599.361 785.446 C 592.664 787.126, 580.661 803.604, 579.290 813 C 578.524 818.249, 578.554 830.964, 579.344 835.500 C 579.727 837.700, 580.184 840.400, 580.360 841.500 C 580.908 844.928, 583.363 851, 584.201 851 C 584.640 851, 585 851.653, 585 852.450 C 585 853.248, 585.788 854.359, 586.750 854.920 C 587.712 855.481, 588.067 855.953, 587.538 855.970 C 586.033 856.017, 597.056 866, 598.614 866 C 599.376 866, 600 866.420, 600 866.933 C 600 867.798, 602.150 868.827, 604.500 869.087 C 605.050 869.147, 606.218 869.581, 607.095 870.051 C 613.132 873.281, 635.443 872.891, 642.121 869.437 C 643.705 868.619, 645 868.218, 645 868.547 C 645 868.876, 646.186 868.212, 647.635 867.073 C 649.084 865.933, 650.671 865, 651.162 865 C 652.312 865, 659 858.928, 659 857.884 C 659 856.632, 654.185 849.861, 652.250 848.392 C 649.639 846.410, 648.189 846.668, 640.439 850.498 C 636.546 852.421, 631.367 854.183, 628.930 854.412 C 626.494 854.642, 624.050 854.953, 623.500 855.105 C 622.094 855.493, 616.309 854.042, 613.545 852.608 C 609.838 850.684, 605.019 846.600, 605.009 845.372 C 605.004 844.752, 604.314 843.676, 603.476 842.980 C 602.638 842.284, 602.125 841.541, 602.338 841.329 C 602.550 841.116, 602.159 838.510, 601.468 835.538 C 600.371 830.819, 600.408 830.058, 601.759 829.539 C 602.610 829.212, 615.281 828.984, 629.917 829.032 C 644.553 829.080, 657.297 828.823, 658.237 828.463 C 659.177 828.102, 660.216 826.365, 660.547 824.603 C 661.310 820.533, 660.485 811.404, 659 807.500 C 658.373 805.850, 657.896 804.385, 657.941 804.245 C 658.280 803.190, 654.632 796.541, 652.600 794.510 C 651.220 793.129, 650.357 792, 650.682 792 C 651.007 792, 650.199 790.941, 648.886 789.647 C 646.247 787.045, 641.915 784.458, 640.750 784.788 C 640.337 784.904, 640 784.502, 640 783.893 C 640 783.284, 639.325 783.045, 638.500 783.362 C 637.675 783.678, 637 783.545, 637 783.066 C 637 781.309, 631.250 780.289, 621.250 780.271 C 615.500 780.261, 611 780.666, 611 781.194 M 437.122 785.203 C 437.634 787.566, 438.353 790.175, 438.720 791 C 439.086 791.825, 439.447 792.950, 439.522 793.500 C 439.956 796.672, 442.207 803.010, 443.095 803.559 C 443.668 803.913, 443.912 804.788, 443.637 805.503 C 443.362 806.219, 443.418 807.085, 443.761 807.428 C 444.104 807.771, 444.536 809.052, 444.721 810.276 C 444.906 811.499, 445.498 812.651, 446.035 812.835 C 446.573 813.020, 446.779 813.549, 446.493 814.012 C 445.975 814.850, 449.201 824.854, 451.110 828.328 C 451.663 829.334, 452.311 831.359, 452.550 832.828 C 453.448 838.348, 454.323 841.516, 455.088 842.021 C 455.522 842.308, 456.083 843.658, 456.333 845.021 C 456.583 846.385, 457.599 850.200, 458.590 853.500 C 459.581 856.800, 460.304 859.837, 460.196 860.250 C 460.088 860.663, 460.450 861, 461 861 C 461.550 861, 462 862.050, 462 863.333 C 462 864.617, 462.337 866.004, 462.750 866.417 C 463.163 866.829, 463.556 867.579, 463.625 868.083 C 463.694 868.588, 463.806 869.450, 463.875 870 C 463.949 870.595, 468.250 871, 474.500 871 C 484.751 871, 485.591 870.743, 485.118 867.750 C 485.053 867.337, 485.477 867, 486.059 867 C 486.641 867, 486.828 866.530, 486.473 865.956 C 486.118 865.382, 486.258 864.370, 486.784 863.706 C 487.538 862.754, 489.846 856.788, 490.539 854 C 490.607 853.725, 490.991 852.349, 491.392 850.941 C 491.793 849.534, 492.228 847.734, 492.359 846.941 C 492.489 846.149, 493.143 844.506, 493.812 843.291 C 494.480 842.075, 494.913 840.725, 494.773 840.291 C 494.491 839.414, 497.547 830.547, 499.129 827.653 C 499.684 826.637, 499.900 825.567, 499.609 825.276 C 499.318 824.985, 499.748 823.453, 500.566 821.873 C 501.383 820.293, 501.884 819, 501.680 819 C 500.686 819, 503.867 809.544, 504.987 809.171 C 505.719 808.927, 505.989 809.208, 505.610 809.822 C 504.972 810.855, 507.904 821.737, 510.240 827 C 510.850 828.375, 511.280 829.809, 511.196 830.187 C 511.111 830.565, 512.102 834.165, 513.397 838.187 C 514.693 842.209, 516.958 849.325, 518.431 854 C 519.905 858.675, 521.827 864.427, 522.703 866.782 L 524.296 871.065 534.898 870.782 C 543.897 870.543, 545.502 870.254, 545.515 868.874 C 545.523 867.980, 546.044 866.180, 546.672 864.874 C 548.498 861.081, 561.308 820.112, 561.485 817.500 C 561.522 816.950, 561.837 816.047, 562.185 815.494 C 563.253 813.793, 567.908 800, 567.413 800 C 567.158 800, 567.647 798.650, 568.500 797 C 569.353 795.350, 569.821 794, 569.540 794 C 569.259 794, 569.923 791.733, 571.015 788.963 C 574.241 780.778, 574.334 780.875, 563.506 781.077 C 552.716 781.278, 550.865 782.209, 549.191 788.272 C 548.624 790.322, 548.405 792, 548.703 792 C 549.001 792, 548.766 792.576, 548.182 793.281 C 547.597 793.986, 546.908 795.673, 546.651 797.031 C 546.394 798.389, 545.680 800.800, 545.064 802.389 C 544.448 803.977, 544.178 805.511, 544.463 805.797 C 544.749 806.082, 544.486 806.914, 543.879 807.645 C 543.273 808.376, 543.046 809.679, 543.377 810.539 C 543.722 811.439, 543.557 811.844, 542.989 811.493 C 542.425 811.145, 542 812.112, 542 813.741 C 542 815.313, 541.438 817.206, 540.750 817.947 C 539.733 819.042, 539.780 819.137, 541 818.455 C 542.293 817.732, 542.310 817.850, 541.128 819.308 C 540.373 820.239, 540.090 821, 540.500 821 C 540.910 821, 540.766 821.576, 540.182 822.281 C 539.117 823.564, 538.881 824.390, 537.042 833.264 C 536.499 835.885, 535.651 838.810, 535.157 839.764 C 534.664 840.719, 534.386 842.288, 534.541 843.250 C 534.696 844.212, 534.375 845, 533.828 845 C 533.281 845, 533.034 844.438, 533.279 843.750 C 533.525 843.063, 533.094 841.249, 532.322 839.721 C 531.550 838.192, 531.169 836.536, 531.475 836.040 C 531.782 835.544, 531.575 834.856, 531.016 834.510 C 530.457 834.165, 530 832.810, 530 831.500 C 530 830.190, 529.543 828.835, 528.984 828.490 C 528.425 828.144, 528.218 827.456, 528.525 826.960 C 528.831 826.464, 528.406 824.753, 527.581 823.156 C 526.755 821.560, 526.362 819.972, 526.707 819.627 C 527.051 819.282, 526.733 819, 526 819 C 525.267 819, 524.918 818.749, 525.224 818.442 C 525.531 818.136, 524.972 815.211, 523.983 811.942 C 522.993 808.674, 522.361 806, 522.578 806 C 522.906 806, 520.546 798.888, 518.264 793 C 517.944 792.175, 517.749 791.178, 517.830 790.785 C 517.911 790.391, 517.500 788.816, 516.918 787.285 C 516.336 785.753, 515.861 784.275, 515.864 784 C 515.890 781.141, 499.962 779.845, 496.441 782.419 C 495.374 783.200, 494.484 784.213, 494.465 784.669 C 494.445 785.126, 493.935 786.400, 493.331 787.500 C 492.727 788.600, 491.916 791.410, 491.529 793.745 C 491.142 796.079, 490.408 798.248, 489.897 798.564 C 489.386 798.880, 489.207 799.526, 489.500 800 C 489.793 800.474, 489.568 801.149, 489 801.500 C 488.432 801.851, 488.257 802.607, 488.612 803.181 C 488.966 803.754, 488.793 804.511, 488.227 804.862 C 487.660 805.213, 486.951 806.850, 486.649 808.500 C 485.777 813.279, 484.788 816.402, 483.713 817.774 C 483.164 818.475, 483 819.334, 483.349 819.682 C 483.697 820.031, 483.613 820.807, 483.162 821.408 C 482.711 822.009, 480.802 827.580, 478.921 833.790 C 475.725 844.337, 475.446 844.863, 474.687 841.790 C 474.239 839.980, 473.897 837.487, 473.925 836.250 C 473.954 835.013, 473.606 834, 473.151 834 C 472.696 834, 472.263 832.373, 472.188 830.384 C 472.113 828.395, 471.641 826.258, 471.139 825.634 C 470.637 825.010, 469.911 822.590, 469.526 820.255 C 469.141 817.921, 468.435 815.769, 467.957 815.473 C 467.479 815.178, 467.323 814.321, 467.612 813.569 C 467.900 812.817, 467.656 811.905, 467.068 811.542 C 466.481 811.179, 466 809.544, 466 807.909 C 466 806.274, 465.395 803.488, 464.655 801.718 C 463.916 799.948, 463.241 798.163, 463.155 797.750 C 463.070 797.337, 462.963 796.888, 462.918 796.750 C 462.873 796.612, 462.631 795.150, 462.380 793.500 C 461.557 788.080, 459.879 784.029, 457.876 782.626 C 456.572 781.712, 452.567 781.187, 446.048 781.075 L 436.191 780.905 437.122 785.203 M 617.500 796.727 C 610.447 798.022, 604.761 803.047, 602.466 810.013 C 600.575 815.753, 599.720 815.500, 621.027 815.500 C 640.161 815.500, 640.670 815.447, 640.246 813.500 C 639.378 809.522, 637.696 804.489, 637.071 804 C 636.719 803.725, 635.434 802.202, 634.216 800.615 C 632.997 799.028, 632 798.032, 632 798.400 C 632 798.769, 630.987 798.514, 629.750 797.835 C 627.500 796.599, 621.268 796.036, 617.500 796.727 M 712.673 798.084 C 710.710 798.405, 708.406 799.248, 707.552 799.957 C 706.699 800.665, 706 800.965, 706 800.622 C 706 800.280, 704.260 801.688, 702.133 803.750 L 698.266 807.500 698.098 827.349 L 697.930 847.198 701.334 850.408 C 705.033 853.897, 713.974 856.294, 717.887 854.846 C 719.040 854.420, 721.065 853.926, 722.388 853.749 C 723.711 853.571, 726.281 851.746, 728.100 849.691 C 733.261 843.862, 735.048 838.023, 735.199 826.500 C 735.333 816.217, 735.026 813.672, 733.022 808.500 C 732.382 806.850, 731.916 805.357, 731.984 805.183 C 732.053 805.008, 730.123 803.254, 727.695 801.286 C 723.108 797.566, 719.951 796.893, 712.673 798.084" stroke="none" fill="#171717" fill-rule="evenodd"/><path d="M 832.472 646.500 C 832.472 682.250, 832.597 696.730, 832.750 678.677 C 832.902 660.625, 832.902 631.375, 832.749 613.677 C 832.596 595.980, 832.471 610.750, 832.472 646.500" stroke="none" fill="#1c1c1c" fill-rule="evenodd"/><path d="M 528.784 711.738 C 531.689 711.941, 536.189 711.939, 538.784 711.734 C 541.378 711.528, 539 711.363, 533.500 711.365 C 528 711.368, 525.878 711.536, 528.784 711.738 M 571.784 711.738 C 574.689 711.941, 579.189 711.939, 581.784 711.734 C 584.378 711.528, 582 711.363, 576.500 711.365 C 571 711.368, 568.878 711.536, 571.784 711.738 M 623.750 711.737 C 626.638 711.939, 631.362 711.939, 634.250 711.737 C 637.138 711.535, 634.775 711.370, 629 711.370 C 623.225 711.370, 620.862 711.535, 623.750 711.737 M 674.750 711.737 C 677.638 711.939, 682.362 711.939, 685.250 711.737 C 688.138 711.535, 685.775 711.370, 680 711.370 C 674.225 711.370, 671.862 711.535, 674.750 711.737 M 816.287 711.740 C 819.469 711.939, 824.419 711.937, 827.287 711.736 C 830.154 711.535, 827.550 711.372, 821.500 711.374 C 815.450 711.376, 813.104 711.541, 816.287 711.740 M 940.250 711.735 C 942.862 711.941, 947.138 711.941, 949.750 711.735 C 952.362 711.529, 950.225 711.360, 945 711.360 C 939.775 711.360, 937.638 711.529, 940.250 711.735 M 1008.287 711.740 C 1011.469 711.939, 1016.419 711.937, 1019.287 711.736 C 1022.154 711.535, 1019.550 711.372, 1013.500 711.374 C 1007.450 711.376, 1005.104 711.541, 1008.287 711.740" stroke="none" fill="#141414" fill-rule="evenodd"/></svg>