<svg xmlns="http://www.w3.org/2000/svg" width="512" height="512" viewBox="0 0 512 512" version="1.1"><path d="M 224.500 1.506 C 218.450 2.276, 211.700 3.284, 209.500 3.746 L 205.500 4.586 205.217 15.793 C 205.062 21.957, 205.189 27, 205.500 27 C 205.812 27, 208.189 25.928, 210.783 24.619 C 228.130 15.861, 252.960 7.996, 275.937 3.981 C 285.485 2.313, 287.138 2.281, 295.347 3.609 C 300.282 4.407, 304.810 4.896, 305.410 4.696 C 306.009 4.495, 301.550 3.515, 295.500 2.518 C 280.752 0.088, 240.186 -0.491, 224.500 1.506 M 318 8 C 321.419 9.095, 324.048 9.095, 321.500 8 C 320.400 7.527, 318.600 7.154, 317.500 7.170 C 315.892 7.194, 315.990 7.356, 318 8 M 325.500 10 C 326.600 10.473, 328.175 10.859, 329 10.859 C 329.945 10.859, 329.761 10.542, 328.500 10 C 327.400 9.527, 325.825 9.141, 325 9.141 C 324.055 9.141, 324.239 9.458, 325.500 10 M 339.940 14.527 C 345.132 16.411, 349.543 17.790, 349.743 17.590 C 350.212 17.122, 333.278 10.984, 331.698 11.050 C 331.039 11.077, 334.748 12.642, 339.940 14.527 M 354 19.767 C 376.183 30.155, 388.101 36.795, 402.500 46.789 C 428.397 64.763, 451.740 88.853, 469.763 116.207 C 477.370 127.753, 488.997 150.046, 493.519 161.756 C 495.060 165.747, 496.492 168.842, 496.700 168.633 C 498.068 167.266, 483.575 136.812, 474.329 121.624 C 455.907 91.364, 425.998 60.643, 396.030 41.199 C 382.552 32.455, 354.207 17.811, 351.249 18.064 C 350.837 18.099, 352.075 18.865, 354 19.767 M 497.653 172 C 498.001 173.375, 498.903 176.075, 499.658 178 C 500.832 180.995, 500.948 181.083, 500.461 178.610 C 500.148 177.021, 499.246 174.321, 498.456 172.610 C 497.376 170.271, 497.177 170.120, 497.653 172 M 501.141 183 C 501.141 183.825, 501.527 185.400, 502 186.500 C 502.542 187.761, 502.859 187.945, 502.859 187 C 502.859 186.175, 502.473 184.600, 502 183.500 C 501.458 182.239, 501.141 182.055, 501.141 183 M 503.170 190 C 503.186 190.825, 503.560 192.625, 504 194 C 504.644 196.010, 504.806 196.108, 504.830 194.500 C 504.846 193.400, 504.473 191.600, 504 190.500 C 503.473 189.275, 503.152 189.081, 503.170 190 M 509.232 220 C 509.232 221.925, 509.438 222.713, 509.689 221.750 C 509.941 220.787, 509.941 219.213, 509.689 218.250 C 509.438 217.287, 509.232 218.075, 509.232 220 M 510.286 228.500 C 510.294 231.250, 510.488 232.256, 510.718 230.736 C 510.947 229.216, 510.941 226.966, 510.704 225.736 C 510.467 224.506, 510.279 225.750, 510.286 228.500 M 511.355 242.500 C 511.352 247.450, 511.521 249.601, 511.731 247.280 C 511.940 244.959, 511.943 240.909, 511.736 238.280 C 511.530 235.651, 511.358 237.550, 511.355 242.500 M 511.355 269.500 C 511.352 274.450, 511.521 276.601, 511.731 274.280 C 511.940 271.959, 511.943 267.909, 511.736 265.280 C 511.530 262.651, 511.358 264.550, 511.355 269.500 M 510.286 283.500 C 510.294 286.250, 510.488 287.256, 510.718 285.736 C 510.947 284.216, 510.941 281.966, 510.704 280.736 C 510.467 279.506, 510.279 280.750, 510.286 283.500 M 509.232 292 C 509.232 293.925, 509.438 294.712, 509.689 293.750 C 509.941 292.788, 509.941 291.212, 509.689 290.250 C 509.438 289.288, 509.232 290.075, 509.232 292 M 505.556 310.556 C 505.179 312.562, 505.071 314.404, 505.315 314.649 C 505.560 314.893, 506.068 313.451, 506.444 311.444 C 506.821 309.438, 506.929 307.596, 506.685 307.351 C 506.440 307.107, 505.932 308.549, 505.556 310.556 M 503.625 319.125 C 502.791 323.293, 503.599 324.101, 504.500 320 C 504.880 318.271, 504.982 316.649, 504.727 316.394 C 504.472 316.139, 503.976 317.368, 503.625 319.125 M 501.571 326.571 C 501.204 328.037, 501.096 329.429, 501.331 329.665 C 501.567 329.900, 502.061 328.894, 502.429 327.429 C 502.796 325.963, 502.904 324.571, 502.669 324.335 C 502.433 324.100, 501.939 325.106, 501.571 326.571 M 498.714 336.214 C 497.804 339.062, 497.225 341.558, 497.427 341.761 C 497.630 341.964, 498.563 339.821, 499.500 337 C 500.437 334.179, 501.016 331.683, 500.787 331.454 C 500.558 331.224, 499.625 333.367, 498.714 336.214 M 493.519 350.244 C 488.997 361.954, 477.370 384.247, 469.763 395.793 C 448.393 428.226, 421.050 454.565, 387.500 475.035 C 378.468 480.545, 359.513 489.952, 350.244 493.525 C 346.253 495.063, 343.158 496.492, 343.367 496.700 C 344.868 498.201, 377.528 482.483, 392.472 473.069 C 423.951 453.237, 454.114 422.934, 473.797 391.366 C 482.334 377.673, 498.057 344.724, 496.700 343.367 C 496.492 343.158, 495.060 346.253, 493.519 350.244 M 205 496.327 L 205 507.655 216.250 509.442 C 229.231 511.504, 261.614 512.606, 277.475 511.525 C 283.336 511.125, 287.956 510.622, 287.740 510.407 C 287.525 510.192, 282.208 509.122, 275.924 508.031 C 254.791 504.359, 226.881 495.548, 211.176 487.589 C 208.366 486.165, 205.827 485, 205.533 485 C 205.240 485, 205 490.097, 205 496.327 M 335.500 499.085 C 332.750 500.147, 331.800 500.762, 333.390 500.453 C 336.534 499.842, 343.124 497.166, 341.500 497.159 C 340.950 497.157, 338.250 498.024, 335.500 499.085 M 325.500 502 C 324.239 502.542, 324.055 502.859, 325 502.859 C 325.825 502.859, 327.400 502.473, 328.500 502 C 329.761 501.458, 329.945 501.141, 329 501.141 C 328.175 501.141, 326.600 501.527, 325.500 502 M 316 504.500 C 313.525 505.217, 312.400 505.813, 313.500 505.825 C 314.600 505.837, 317.300 505.253, 319.500 504.528 C 324.679 502.821, 321.872 502.799, 316 504.500 M 290.250 509.689 C 291.212 509.941, 292.788 509.941, 293.750 509.689 C 294.712 509.438, 293.925 509.232, 292 509.232 C 290.075 509.232, 289.288 509.438, 290.250 509.689" stroke="none" fill="#c41c1c" fill-rule="evenodd"/><path d="M 192.500 7.506 C 88.528 34.676, 12.532 122.286, 1.052 228.211 C -0.302 240.704, -0.302 271.296, 1.052 283.789 C 12.519 389.595, 89.460 478.274, 192.500 504.442 C 198 505.839, 203.063 506.986, 203.750 506.991 C 204.674 506.998, 205 504.156, 205 496.090 L 205 485.181 197.250 480.931 C 134.812 446.693, 88.813 387.240, 71.576 318.500 C 61.344 277.697, 61.344 234.303, 71.576 193.500 C 88.813 124.761, 135.077 64.957, 197.250 31.046 L 205 26.819 205 15.910 C 205 3.227, 206.085 3.957, 192.500 7.506" stroke="none" fill="#037c3c" fill-rule="evenodd"/><path d="M 139.431 165.500 C 139.432 178.700, 139.574 183.962, 139.747 177.193 C 139.921 170.424, 139.920 159.624, 139.746 153.193 C 139.572 146.762, 139.431 152.300, 139.431 165.500 M 194 165.096 C 194 177.616, 196.853 182, 205 182 C 213.147 182, 216 177.616, 216 165.096 L 216 156 205 156 L 194 156 194 165.096 M 167 198.077 C 167 207.840, 167.089 208.243, 169.872 211.026 C 173.152 214.306, 176.825 215.512, 180.628 214.557 C 182.074 214.194, 184.549 212.605, 186.128 211.026 C 188.911 208.243, 189 207.840, 189 198.077 L 189 188 178 188 L 167 188 167 198.077 M 194 198.077 C 194 207.840, 194.089 208.243, 196.872 211.026 C 200.152 214.306, 203.825 215.512, 207.628 214.557 C 209.074 214.194, 211.549 212.605, 213.128 211.026 C 215.911 208.243, 216 207.840, 216 198.077 L 216 188 205 188 L 194 188 194 198.077 M 221.698 188.635 C 220.298 190.036, 220.965 205.123, 222.577 208.522 C 225.771 215.252, 235.001 216.727, 240.364 211.364 C 243.466 208.261, 244.217 204.804, 243.808 195.500 L 243.500 188.500 232.948 188.218 C 227.145 188.063, 222.083 188.251, 221.698 188.635 M 139.343 212.500 C 139.346 216.900, 139.522 218.576, 139.733 216.224 C 139.945 213.872, 139.942 210.272, 139.727 208.224 C 139.512 206.176, 139.339 208.100, 139.343 212.500 M 195.250 222.645 C 194.374 223.010, 194 226.015, 194 232.683 C 194 242.173, 194.010 242.210, 197.400 245.600 C 200.187 248.387, 201.557 249, 205 249 C 208.452 249, 209.812 248.388, 212.637 245.563 L 216.074 242.126 215.787 232.313 L 215.500 222.500 206 222.311 C 200.775 222.208, 195.938 222.358, 195.250 222.645 M 156 257.313 C 156 257.485, 157.463 258.948, 159.250 260.563 L 162.500 263.500 159.563 260.250 C 156.825 257.221, 156 256.540, 156 257.313" stroke="none" fill="#3e436d" fill-rule="evenodd"/><path d="M 195 89.119 C 150.231 92.740, 112.190 125.172, 99.753 170.323 C 97.766 177.535, 97.509 180.743, 97.570 197.500 C 97.634 215.167, 97.829 217.131, 100.349 225.500 C 112.788 266.819, 144.238 295.708, 185.250 303.488 C 195.470 305.427, 214.530 305.427, 224.750 303.488 C 269.941 294.915, 304.765 259.110, 312.033 213.747 C 313.734 203.131, 312.750 179.789, 310.211 170.500 C 295.782 117.722, 249.094 84.743, 195 89.119 M 182.022 106.547 C 171.169 109.350, 161.180 113.837, 151.341 120.328 C 140.166 127.701, 140 127.925, 140 135.651 L 140 142.374 136.918 139.437 L 133.836 136.500 131.367 139.500 C 123.664 148.860, 116.344 164.795, 113.585 178.208 C 110.940 191.071, 109.812 190, 126 190 L 140 190 140 197 L 140 204 126 204 C 109.812 204, 110.940 202.929, 113.585 215.792 C 116.349 229.229, 123.710 245.238, 131.384 254.500 L 133.869 257.500 140.530 251 C 146.627 245.050, 147.288 244.657, 148.345 246.357 C 148.980 247.379, 150.932 250.124, 152.682 252.458 L 155.864 256.702 150.432 262.067 C 147.444 265.018, 145 267.760, 145 268.161 C 145 269.551, 156.143 276.860, 164.301 280.820 C 173.030 285.057, 184.154 288.485, 192.750 289.585 L 198 290.258 198 284.629 L 198 279 205.500 279 L 213 279 213 284.614 L 213 290.227 217.750 289.559 C 226.341 288.351, 237.369 284.960, 245.500 281.027 C 253.440 277.187, 265 269.559, 265 268.161 C 265 267.760, 262.556 265.018, 259.568 262.067 L 254.136 256.702 257.318 252.458 C 259.068 250.124, 261.020 247.379, 261.655 246.357 C 262.712 244.657, 263.373 245.050, 269.470 251 L 276.131 257.500 278.616 254.500 C 286.290 245.238, 293.651 229.229, 296.415 215.792 C 299.061 202.927, 300.194 204, 283.956 204 L 269.912 204 270.206 196.750 L 270.500 189.500 284.340 189.221 L 298.180 188.942 297.473 183.721 C 296.406 175.842, 292.362 162.665, 288.873 155.703 C 285.636 149.245, 277.375 137, 276.254 137 C 275.900 137, 274.347 138.209, 272.805 139.687 L 270 142.374 270 135.651 C 270 129.952, 269.658 128.618, 267.750 126.885 C 263.776 123.276, 252.030 115.915, 244.651 112.411 C 237.243 108.893, 219.919 104, 214.872 104 L 212 104 212 114 L 212 124 204.500 124 L 197 124 197 114 L 197 104 194.250 104.049 C 192.738 104.076, 187.235 105.200, 182.022 106.547 M 160.455 148.455 L 158 150.909 158 183.244 C 158 209.054, 158.309 216.766, 159.531 221.458 C 163.209 235.577, 172.200 246.329, 185.734 252.792 C 193.299 256.404, 193.797 256.500, 205 256.500 C 216.203 256.500, 216.701 256.404, 224.266 252.792 C 237.800 246.329, 246.791 235.577, 250.469 221.458 C 251.691 216.766, 252 209.054, 252 183.244 L 252 150.909 249.545 148.455 L 247.091 146 205 146 L 162.909 146 160.455 148.455 M 194 165.096 C 194 177.616, 196.853 182, 205 182 C 213.147 182, 216 177.616, 216 165.096 L 216 156 205 156 L 194 156 194 165.096 M 167 198.077 C 167 207.840, 167.089 208.243, 169.872 211.026 C 173.152 214.306, 176.825 215.512, 180.628 214.557 C 182.074 214.194, 184.549 212.605, 186.128 211.026 C 188.911 208.243, 189 207.840, 189 198.077 L 189 188 178 188 L 167 188 167 198.077 M 194 198.077 C 194 207.840, 194.089 208.243, 196.872 211.026 C 200.152 214.306, 203.825 215.512, 207.628 214.557 C 209.074 214.194, 211.549 212.605, 213.128 211.026 C 215.911 208.243, 216 207.840, 216 198.077 L 216 188 205 188 L 194 188 194 198.077 M 221.698 188.635 C 220.298 190.036, 220.965 205.123, 222.577 208.522 C 225.771 215.252, 235.001 216.727, 240.364 211.364 C 243.466 208.261, 244.217 204.804, 243.808 195.500 L 243.500 188.500 232.948 188.218 C 227.145 188.063, 222.083 188.251, 221.698 188.635 M 195.250 222.645 C 194.374 223.010, 194 226.015, 194 232.683 C 194 242.173, 194.010 242.210, 197.400 245.600 C 200.187 248.387, 201.557 249, 205 249 C 208.452 249, 209.812 248.388, 212.637 245.563 L 216.074 242.126 215.787 232.313 L 215.500 222.500 206 222.311 C 200.775 222.208, 195.938 222.358, 195.250 222.645" stroke="none" fill="#f6c752" fill-rule="evenodd"/><path d="M 195.622 31.987 C 154.091 55.270, 121.178 87.934, 97.369 129.497 C 68.133 180.535, 57.557 240.801, 67.538 299.500 C 80.512 375.799, 128.865 443.432, 197.250 480.931 L 205 485.181 205 395.090 L 205 305 199.110 305 C 180.705 305, 156.667 296.192, 139.244 283.063 C 120.934 269.266, 107.571 249.489, 100.349 225.500 C 97.829 217.131, 97.634 215.167, 97.570 197.500 C 97.493 176.328, 98.592 170.240, 105.409 154.074 C 112.424 137.443, 128.206 118.006, 142.624 108.243 C 159.258 96.980, 181.793 89.029, 197.208 88.985 C 200.119 88.976, 203.069 88.608, 203.765 88.166 C 204.749 87.542, 204.971 80.661, 204.765 57.187 L 204.500 27.010 195.622 31.987 M 182 106.549 C 171.475 109.263, 159.141 114.859, 151.503 120.385 L 146.506 124 171.753 124 L 197 124 197 114 L 197 104 194.250 104.049 C 192.738 104.076, 187.225 105.201, 182 106.549 M 128.976 142.750 C 120.766 154.169, 114.163 170.843, 112.464 184.446 L 111.770 190 125.385 190 L 139 190 139 165.674 C 139 141.540, 138.982 141.332, 136.686 139.174 C 135.413 137.978, 134.087 137, 133.741 137 C 133.394 137, 131.250 139.588, 128.976 142.750 M 112.464 209.554 C 113.548 218.233, 116.757 228.769, 120.976 237.500 C 124.805 245.423, 132.438 257, 133.834 257 C 134.232 257, 137.371 254.162, 140.809 250.693 L 147.060 244.385 144.595 238.811 C 141.354 231.483, 139 219.798, 139 211.042 L 139 204 125.385 204 L 111.770 204 112.464 209.554 M 149.872 262.663 L 144.500 268.136 147.500 270.618 C 158.218 279.486, 177.720 287.661, 192.750 289.585 L 198 290.258 198 284.648 C 198 279.342, 197.851 279.005, 195.250 278.432 C 180.913 275.271, 171.590 270.916, 162.099 262.947 L 155.243 257.191 149.872 262.663" stroke="none" fill="#068545" fill-rule="evenodd"/><path d="M 283 2.683 C 257.201 6.850, 234.043 13.780, 212.736 23.710 L 204.972 27.329 205.236 57.914 L 205.500 88.500 214.500 89.149 C 259.441 92.390, 297.761 124.961, 310.211 170.500 C 312.750 179.789, 313.734 203.131, 312.033 213.747 C 304.765 259.110, 269.941 294.915, 224.750 303.488 C 220.366 304.320, 214.129 305, 210.890 305 L 205 305 205 394.842 L 205 484.685 212.750 488.302 C 231.720 497.158, 254.702 504.344, 275.754 508.001 C 286.999 509.955, 287.015 509.955, 299.125 507.898 C 368.654 496.089, 430.413 455.457, 469.965 395.500 C 478.252 382.937, 491.164 357.205, 496.536 342.549 C 516.939 286.880, 516.190 219.809, 494.545 164.453 C 465.188 89.372, 403.112 32.407, 326.676 10.407 C 310.907 5.868, 288.172 1.847, 283 2.683 M 212 114 L 212 124 178.455 124 L 144.909 124 142.402 126.507 L 139.895 129.014 140.235 177.757 C 140.609 231.441, 140.423 229.700, 147.302 243.812 C 152.788 255.068, 167.175 268.315, 179.500 273.460 C 186.376 276.330, 199.214 278.986, 206.250 278.993 L 213 279 213 284.614 L 213 290.227 217.750 289.559 C 226.341 288.351, 237.369 284.960, 245.500 281.027 C 253.440 277.187, 265 269.559, 265 268.161 C 265 267.760, 262.556 265.018, 259.568 262.067 L 254.136 256.702 257.318 252.458 C 259.068 250.124, 261.020 247.379, 261.655 246.357 C 262.712 244.657, 263.373 245.050, 269.470 251 L 276.131 257.500 278.616 254.500 C 286.290 245.238, 293.651 229.229, 296.415 215.792 C 299.061 202.927, 300.194 204, 283.956 204 L 269.912 204 270.206 196.750 L 270.500 189.500 284.340 189.221 L 298.180 188.942 297.473 183.721 C 296.406 175.842, 292.362 162.665, 288.873 155.703 C 285.636 149.245, 277.375 137, 276.254 137 C 275.900 137, 274.347 138.209, 272.805 139.687 L 270 142.374 270 135.651 C 270 129.952, 269.658 128.618, 267.750 126.885 C 263.776 123.276, 252.030 115.915, 244.651 112.411 C 237.243 108.893, 219.919 104, 214.872 104 L 212 104 212 114 M 160.455 148.455 L 158 150.909 158 183.244 C 158 209.054, 158.309 216.766, 159.531 221.458 C 163.209 235.577, 172.200 246.329, 185.734 252.792 C 193.299 256.404, 193.797 256.500, 205 256.500 C 216.203 256.500, 216.701 256.404, 224.266 252.792 C 237.800 246.329, 246.791 235.577, 250.469 221.458 C 251.691 216.766, 252 209.054, 252 183.244 L 252 150.909 249.545 148.455 L 247.091 146 205 146 L 162.909 146 160.455 148.455" stroke="none" fill="#dc1e1e" fill-rule="evenodd"/></svg>