<svg xmlns="http://www.w3.org/2000/svg" width="512" height="512" viewBox="0 0 512 512" version="1.1"><path d="M 206 4.579 C 199.675 5.926, 193.262 7.303, 191.750 7.639 L 189 8.250 189 74.871 L 189 141.492 144.592 97.092 L 100.184 52.692 95.993 55.774 C 93.688 57.469, 87.981 62.334, 83.311 66.585 L 74.821 74.314 132.657 132.157 L 190.494 190 174.001 190 L 157.508 190 108.294 140.794 C 81.226 113.730, 58.914 91.793, 58.711 92.044 C 58.509 92.295, 57.063 94.220, 55.498 96.322 L 52.653 100.144 97.072 144.572 L 141.492 189 74.871 189 L 8.250 189 7.641 191.750 C 5.063 203.402, 2.019 218.807, 2.011 220.250 C 2.001 221.906, 7.901 222, 112 222 L 222 222 222 112 L 222 2 219.750 2.065 C 218.512 2.101, 212.325 3.232, 206 4.579 M 290 112 L 290 222 400 222 C 504.099 222, 509.999 221.906, 509.989 220.250 C 509.981 218.807, 506.937 203.402, 504.359 191.750 L 503.750 189 437.129 189 L 370.508 189 414.937 144.563 L 459.366 100.126 455.630 95.313 C 453.576 92.666, 448.700 86.970, 444.795 82.656 L 437.694 74.812 379.847 132.653 L 322 190.494 322 173.993 L 322 157.492 370.955 108.545 C 409.651 69.855, 419.677 59.315, 418.794 58.252 C 418.180 57.512, 416.353 55.964, 414.735 54.811 L 411.792 52.716 367.396 97.104 L 323 141.492 323 74.871 L 323 8.250 320.250 7.641 C 308.598 5.063, 293.193 2.019, 291.750 2.011 C 290.094 2.001, 290 7.901, 290 112 M 2.011 291.750 C 2.019 293.193, 5.063 308.598, 7.641 320.250 L 8.250 323 74.871 323 L 141.492 323 97.063 367.437 L 52.634 411.874 56.370 416.687 C 58.424 419.334, 63.300 425.030, 67.205 429.344 L 74.306 437.188 132.153 379.347 L 190 321.506 190 338.007 L 190 354.508 141.045 403.455 C 102.349 442.145, 92.323 452.685, 93.206 453.748 C 93.820 454.488, 95.647 456.036, 97.265 457.189 L 100.208 459.284 144.604 414.896 L 189 370.508 189 437.129 L 189 503.750 191.750 504.359 C 203.402 506.937, 218.807 509.981, 220.250 509.989 C 221.906 509.999, 222 504.099, 222 400 L 222 290 112 290 C 7.901 290, 2.001 290.094, 2.011 291.750 M 290 400 C 290 504.099, 290.094 509.999, 291.750 509.989 C 293.193 509.981, 308.598 506.937, 320.250 504.359 L 323 503.750 323 437.129 L 323 370.508 367.437 414.937 L 411.874 459.366 416.687 455.630 C 419.334 453.576, 425.030 448.700, 429.344 444.795 L 437.188 437.694 379.347 379.847 L 321.506 322 338.007 322 L 354.508 322 403.455 370.955 C 442.145 409.651, 452.685 419.677, 453.748 418.794 C 454.488 418.180, 456.036 416.353, 457.189 414.735 L 459.284 411.792 414.896 367.396 L 370.508 323 437.129 323 L 503.750 323 504.359 320.250 C 506.937 308.598, 509.981 293.193, 509.989 291.750 C 509.999 290.094, 504.099 290, 400 290 L 290 290 290 400" stroke="none" fill="#f0f0f0" fill-rule="evenodd"/><path d="M 232 0.626 C 229.525 0.847, 226.489 1.254, 225.254 1.532 L 223.009 2.036 222.754 112.268 L 222.500 222.500 112.268 222.754 L 2.036 223.009 1.268 225.754 C 0.267 229.332, 0.267 282.668, 1.268 286.246 L 2.036 288.991 112.268 289.246 L 222.500 289.500 222.754 399.732 L 223.009 509.964 225.754 510.732 C 229.332 511.733, 282.668 511.733, 286.246 510.732 L 288.991 509.964 289.246 399.732 L 289.500 289.500 399.732 289.246 L 509.964 288.991 510.438 286.746 C 511.795 280.318, 512.260 273.689, 512.651 255.166 C 512.944 241.242, 512.752 235.035, 512.040 235.475 C 511.371 235.889, 510.995 234.226, 510.985 230.809 C 510.976 227.889, 510.613 224.939, 510.178 224.254 C 509.557 223.275, 485.876 222.954, 399.444 222.754 L 289.500 222.500 289.246 112.355 C 289.006 8.647, 288.889 2.168, 287.246 1.475 C 285.351 0.677, 239.348 -0.031, 232 0.626 M 371.746 108.754 L 323 157.508 323 173 L 323 188.493 380.059 131.497 L 437.119 74.500 429.309 67.264 C 425.014 63.284, 421.273 60.021, 420.996 60.014 C 420.719 60.006, 398.557 81.939, 371.746 108.754 M 66.934 83.074 L 59.655 91.148 108.574 140.074 L 157.492 189 173.496 188.999 L 189.500 188.999 132.500 132.003 C 101.150 100.655, 75.210 75.005, 74.856 75.004 C 74.502 75.002, 70.937 78.633, 66.934 83.074 M 0.422 256 C 0.422 267.275, 0.568 271.887, 0.746 266.250 C 0.924 260.613, 0.924 251.387, 0.746 245.750 C 0.568 240.113, 0.422 244.725, 0.422 256 M 380.478 379.978 L 437.450 436.956 440.814 433.728 C 442.664 431.953, 446.011 428.325, 448.252 425.667 L 452.326 420.833 403.417 371.917 L 354.508 323 339.007 323 L 323.507 323 380.478 379.978 M 131.657 380.841 L 74.814 437.692 82.481 444.596 C 86.698 448.393, 90.453 451.613, 90.827 451.751 C 91.200 451.889, 113.454 430.050, 140.280 403.220 L 189.054 354.438 188.777 339.214 L 188.500 323.989 131.657 380.841" stroke="none" fill="#d80027" fill-rule="evenodd"/><path d="M 181.500 10.635 C 156.631 18.077, 133.102 29.597, 108.669 46.294 L 99.838 52.330 144.165 96.665 C 168.545 121.049, 188.606 141, 188.746 141 C 188.886 141, 189 111.300, 189 75 C 189 22.830, 188.738 9.015, 187.750 9.070 C 187.063 9.108, 184.250 9.813, 181.500 10.635 M 323 75.246 L 323 141.492 367.477 97.023 C 391.940 72.565, 411.627 52.285, 411.227 51.955 C 397.701 40.809, 369.569 24.984, 349.844 17.426 C 339.124 13.318, 326.084 9.031, 324.250 9.013 C 323.262 9.003, 323 22.909, 323 75.246 M 48.919 104.731 C 41.786 114.353, 31.510 131.753, 24.874 145.448 C 18.479 158.646, 8.003 187.336, 9.157 188.490 C 9.445 188.779, 39.230 188.899, 75.345 188.757 L 141.009 188.500 96.732 144.231 L 52.455 99.963 48.919 104.731 M 414.902 144.598 L 370.508 189 436.754 189 C 479.717 189, 503 188.653, 503 188.012 C 503 186.383, 496.974 168.034, 493.841 160.123 C 487.003 142.855, 473.028 117.883, 462.908 104.848 L 459.296 100.195 414.902 144.598 M 9 324.018 C 9 326.523, 16.704 348.518, 21.077 358.500 C 27.918 374.115, 31.999 381.528, 42.761 397.884 L 52.224 412.267 96.612 367.888 C 121.026 343.479, 141 323.394, 141 323.254 C 141 323.114, 111.300 323, 75 323 C 30.868 323, 9 323.337, 9 324.018 M 415 367.500 C 439.470 391.975, 459.574 412, 459.674 412 C 459.775 412, 464.119 405.588, 469.328 397.750 C 478.435 384.046, 486.748 368.731, 492.533 355 C 495.807 347.227, 503 326.129, 503 324.297 C 503 323.247, 490.360 323, 436.754 323 L 370.508 323 415 367.500 M 144.302 415.246 L 100.104 459.500 102.683 461.396 C 119.736 473.929, 141.975 486.508, 159 493.250 C 174.744 499.485, 187.690 503.643, 188.581 502.752 C 188.820 502.514, 188.899 472.770, 188.757 436.655 L 188.500 370.991 144.302 415.246 M 323 436.754 C 323 493.318, 323.208 503, 324.420 503 C 326.304 503, 346.795 495.990, 355 492.539 C 372.488 485.182, 398.476 470.277, 409.152 461.480 L 411.803 459.295 367.402 414.902 L 323 370.508 323 436.754" stroke="none" fill="#0454b4" fill-rule="evenodd"/><path d="M 222.246 111.746 L 222 221.991 111.750 222.250 L 1.500 222.509 111.781 222.754 C 199.267 222.949, 222.161 222.742, 222.539 221.750 C 222.801 221.063, 222.897 171.225, 222.753 111 L 222.491 1.500 222.246 111.746 M 289.493 112 L 289.500 222.500 399.750 222.507 L 510 222.513 400.004 222.252 L 290.009 221.991 289.748 111.746 L 289.487 1.500 289.493 112 M 371.220 108.280 L 321.948 157.559 322.224 173.785 L 322.500 190.010 380 132.255 L 437.500 74.500 380.250 131.497 L 323 188.493 323 173 L 323 157.508 372.246 108.254 C 399.332 81.164, 421.267 59, 420.992 59 C 420.717 59, 398.320 81.176, 371.220 108.280 M 107.996 140.250 L 157.492 190 173.996 189.777 L 190.500 189.553 174 189.258 L 157.500 188.963 108 139.731 L 58.500 90.500 107.996 140.250 M 111.746 289.748 L 221.991 290.009 222.252 400.004 L 222.513 510 222.507 399.750 L 222.500 289.500 112 289.493 L 1.500 289.487 111.746 289.748 M 289.461 290.250 C 289.199 290.938, 289.103 340.775, 289.247 401 L 289.509 510.500 289.754 400.254 L 290 290.009 400.250 289.750 L 510.500 289.491 400.219 289.246 C 312.733 289.051, 289.839 289.258, 289.461 290.250 M 132 379.745 L 74.500 437.500 131.750 380.503 L 189 323.507 189 339 L 189 354.492 139.751 403.996 L 90.503 453.500 140.277 403.973 L 190.052 354.446 189.776 338.218 L 189.500 321.990 132 379.745 M 379 379.500 C 410.621 411.125, 436.718 437, 436.993 437 C 437.268 437, 411.846 411.350, 380.500 380 L 323.507 323 339 323 L 354.492 323 403.996 372.250 L 453.500 421.500 404.004 371.750 L 354.508 322 338.007 322 L 321.507 322 379 379.500" stroke="none" fill="#f2eff0" fill-rule="evenodd"/></svg>